<svg xmlns="http://www.w3.org/2000/svg" width="1200" height="630" viewBox="0 0 1200 630" role="img" aria-labelledby="title desc"><title id="title">MATLAB 入门能力图</title><desc id="desc">矩阵计算、数据分析、可视化和工程建模</desc><rect width="1200" height="630" fill="#f8fafc"/><text x="600" y="90" text-anchor="middle" font-family="Segoe UI,Microsoft YaHei,sans-serif" font-size="46" font-weight="700" fill="#182230">MATLAB 入门地图</text><g font-family="Segoe UI,Microsoft YaHei,sans-serif"><rect x="465" y="235" width="270" height="150" rx="8" fill="#182230"/><text x="600" y="300" text-anchor="middle" font-size="38" font-weight="700" fill="#fff">MATLAB</text><text x="600" y="342" text-anchor="middle" font-size="21" fill="#cbd5e1">矩阵是核心数据结构</text><path d="M465 275 315 205M735 275 885 205M465 345 315 425M735 345 885 425" stroke="#64748b" stroke-width="4"/><rect x="80" y="135" width="250" height="130" rx="8" fill="#eef5ff" stroke="#3b82f6" stroke-width="3"/><text x="205" y="192" text-anchor="middle" font-size="27" font-weight="700" fill="#1d4ed8">矩阵运算</text><text x="205" y="230" text-anchor="middle" font-size="20" fill="#334155">线性代数 · 方程组</text><rect x="870" y="135" width="250" height="130" rx="8" fill="#ecfdf5" stroke="#16a34a" stroke-width="3"/><text x="995" y="192" text-anchor="middle" font-size="27" font-weight="700" fill="#15803d">数据分析</text><text x="995" y="230" text-anchor="middle" font-size="20" fill="#334155">导入 · 清洗 · 统计</text><rect x="80" y="405" width="250" height="130" rx="8" fill="#fff7ed" stroke="#ea580c" stroke-width="3"/><text x="205" y="462" text-anchor="middle" font-size="27" font-weight="700" fill="#c2410c">数据可视化</text><text x="205" y="500" text-anchor="middle" font-size="20" fill="#334155">曲线 · 图像 · 动画</text><rect x="870" y="405" width="250" height="130" rx="8" fill="#fdf2f8" stroke="#db2777" stroke-width="3"/><text x="995" y="462" text-anchor="middle" font-size="27" font-weight="700" fill="#be185d">工程建模</text><text x="995" y="500" text-anchor="middle" font-size="20" fill="#334155">算法 · 仿真 · 优化</text></g></svg>

